# AST/ASF file generated using VICON BodyLanguage
# -----------------------------------------------
:version 1.10
:name VICON
:units
  mass 1.0
  length 0.45
  angle deg
:documentation
   .ast/.asf automatically generated from VICON data using
   VICON BodyBuilder and BodyLanguage model FoxedUp or BRILLIANT.MOD
:root
   order TX TY TZ RX RY RZ
   axis XYZ
   position 0 0 0  
   orientation 0 0 0 
:bonedata
  begin
     id 1 
     name lhipjoint
     direction 0.646657 -0.683706 0.338203 
     length 2.4948 
     axis 0 0 0  XYZ
  end
  begin
     id 2 
     name lfemur
     direction 0.34202 -0.939693 0  
     length 6.79491  
     axis 0 0 20  XYZ
    dof rx ry rz
    limits (-160.0 20.0)
           (-70.0 70.0)
           (-60.0 70.0)
  end
  begin
     id 3 
     name ltibia
     direction 0.34202 -0.939693 0   
     length 7.56807   
     axis 0 0 20   XYZ
    dof rx
    limits (-10.0 170.0)
  end
  begin
     id 4 
     name lfoot
     direction 0.0679796 -0.186772 0.980048   
     length 2.53018   
     axis -90 7.62852e-016 20   XYZ
    dof rx rz
    limits (-45.0 90.0)
           (-70.0 20.0)
  end
  begin
     id 5 
     name ltoes
     direction 1.53625e-011 -4.21881e-011 1   
     length 1.26912   
     axis -90 7.62852e-016 20   XYZ
    dof rx
    limits (-90.0 20.0)
  end
  begin
     id 6 
     name rhipjoint
     direction -0.618868 -0.704065 0.348274   
     length 2.42265  
     axis 0 0 0  XYZ 
  end
  begin
     id 7 
     name rfemur
     direction -0.34202 -0.939693 0   
     length 6.73814   
     axis 0 0 -20   XYZ
    dof rx ry rz
    limits (-160.0 20.0)
           (-70.0 70.0)
           (-70.0 60.0)
  end
  begin
     id 8 
     name rtibia
     direction -0.34202 -0.939693 0   
     length 7.66799   
     axis 0 0 -20   XYZ
    dof rx
    limits (-10.0 170.0)
 end
 begin
     id 9 
     name rfoot
     direction -0.0727352 -0.199838 0.977125   
     length 2.57224  
     axis -90 -7.62852e-016 -20   XYZ
    dof rx rz
    limits (-45.0 90.0)
           (-20.0 70.0)
  end
  begin
     id 10 
     name rtoes
     direction -1.53501e-011 -4.21858e-011 1   
     length 1.28858   
     axis -90 -7.62852e-016 -20   XYZ
    dof rx
    limits (-90.0 20.0)
  end
  begin
     id 11 
     name lowerback
     direction -0.0172471 0.995767 -0.0902851   
     length 2.20206   
     axis 0 0 0   XYZ
    dof rx ry rz
    limits (-20.0 45.0)
           (-30.0 30.0)
           (-30.0 30.0)
  end
  begin
     id 12 
     name upperback
     direction -0.000110737 0.999714 0.0239043   
     length 2.19523   
     axis 0 0 0   XYZ
    dof rx ry rz
    limits (-20.0 45.0)
           (-30.0 30.0)
           (-30.0 30.0)
  end
  begin
     id 13 
     name thorax
     direction 0.00704869 0.997783 0.0661741   
     length 2.21977   
     axis 0 0 0   XYZ
    dof rx ry rz
    limits (-20.0 45.0)
           (-30.0 30.0)
           (-30.0 30.0)
  end
  begin
     id 14 
     name lowerneck
     direction -0.00407501 0.995527 0.0943846   
     length 1.83142   
     axis 0 0 0   XYZ
    dof rx ry rz
    limits (-20.0 45.0)
           (-30.0 30.0)
           (-30.0 30.0)
  end
  begin
     id 15 
     name upperneck
     direction 0.0640586 0.986486 -0.150807   
     length 1.84616   
     axis 0 0 0   XYZ
    dof rx ry rz
    limits (-20.0 45.0)
           (-30.0 30.0)
           (-30.0 30.0)
  end
  begin
     id 16
     name head
     direction 0.0188017 0.99791 -0.0618239  
     length 1.85932  
     axis 0 0 0   XYZ
    dof rx ry rz
    limits (-20.0 45.0)
           (-30.0 30.0)
           (-30.0 30.0)
  end
  begin
     id 17 
     name lclavicle
     direction 0.976074 0.206905 0.066852  
     length 3.81043  
     axis 0 0 0   XYZ
    dof ry rz
    limits (-20.0 10.0)
           (0.0 20.0)
  end
  begin
     id 18 
     name lhumerus
     direction 1 -4.48971e-011 1.86916e-027   
     length 5.37587   
     axis 180 -30 -90   XYZ
    dof rx ry rz
    limits (-60.0 90.0)
           (-90.0 90.0)
           (-90.0 90.0)
  end
  begin
     id 19
     name lradius
     direction 1 -4.48968e-011 1.69187e-027   
     length 3.35977   
     axis 180 -30 -90   XYZ
    dof rx
    limits (-10.0 170.0)
  end
  begin
     id 20
     name lwrist
     direction 1 -4.48968e-011 5.8978e-027   
     length 1.67988   
     axis -3.27506e-015 90 90   XYZ
    dof ry
    limits (-180.0 0.0)
 end
  begin
     id 21 
     name lhand
     direction 1 -4.49028e-011 1.18071e-026   
     length 0.561859   
     axis -7.52654e-015 90 90   XYZ
    dof rx rz
    limits (-90.0 90.0)
           (-45.0 45.0)
  end
  begin
     id 22 
     name lfingers
     direction 1 -4.48927e-011 2.35758e-026   
     length 0.452985   
     axis -1.50534e-014 90 90   XYZ
    dof rx
    limits (0.0 90.0)
  end
  begin
     id 23
     name lthumb
     direction 0.707107 -6.34898e-011 0.707107   
     length 0.650399   
     axis -90 45 5.69224e-014   XYZ
    dof rx rz
    limits (-45.0 45.0)
           (-45.0 45.0)
  end
  begin
     id 24 
     name rclavicle
     direction -0.988403 0.151789 0.00439714   
     length 3.6942  
     axis 0 0 0   XYZ 
    dof ry rz
    limits (-10.0 20.0)
           (-20.0 0.0)
  end
  begin
     id 25 
     name rhumerus
     direction -1 -4.48978e-011 1.62495e-027  
     length 5.22819   
     axis 180 30 90   XYZ
    dof rx ry rz
    limits (-90.0 60.0)
           (-90.0 90.0)
           (-90.0 90.0)
  end
  begin
     id 26 
     name rradius
     direction -1 -4.48961e-011 3.47796e-027   
     length 3.40764   
     axis 180 30 90   XYZ
    dof rx
    limits (-10.0 170.0)
  end
  begin
     id 27 
     name rwrist
     direction -1 -4.48949e-011 5.89602e-027   
     length 1.70382   
     axis -3.27506e-015 -90 -90   XYZ
    dof ry
    limits (-180.0 0.0)
  end
  begin
     id 28
     name rhand
     direction -1 -4.48977e-011 1.17973e-026   
     length 0.583255   
     axis -7.52654e-015 -90 -90   XYZ
    dof rx rz
    limits (-90.0 90.0)
           (-45.0 45.0)
  end
  begin
     id 29
     name rfingers
     direction -1 -4.49099e-011 2.36408e-026   
     length 0.470235   
     axis -1.50534e-014 -90 -90   XYZ
    dof rx
    limits (0.0 90.0)
  end
  begin
     id 30
     name rthumb
     direction -0.707107 -6.35011e-011 0.707107   
     length 0.675167   
     axis -90 -45 -5.69224e-014   XYZ
    dof rx rz
    limits (-45.0 45.0)
           (-45.0 45.0)
  end
:hierarchy
  begin
    root lhipjoint rhipjoint lowerback
    lhipjoint lfemur
    lfemur ltibia
    ltibia lfoot
    lfoot ltoes
    rhipjoint rfemur
    rfemur rtibia
    rtibia rfoot
    rfoot rtoes
    lowerback upperback
    upperback thorax
    thorax lowerneck lclavicle rclavicle
    lowerneck upperneck
    upperneck head
    lclavicle lhumerus
    lhumerus lradius
    lradius lwrist
    lwrist lhand lthumb
    lhand lfingers
    rclavicle rhumerus
    rhumerus rradius
    rradius rwrist
    rwrist rhand rthumb
    rhand rfingers
  end

#!OML:ASF G:\JayActor3\Patient Classification 1\Patient 1\Session 2\male.ASF
:FULLY-SPECIFIED
:DEGREES
480
root -21.1589 19.3673 -8.28531 -279.841 -68.7924 276.907
lowerback 17.6796 -0.221464 1.22384
upperback 6.38865 -0.350436 3.32219
thorax -3.04577 -0.375201 2.89856
lowerneck -4.26835 -6.24937 -6.326
upperneck 6.19442 -10.0928 20.4869
head 3.95234 -4.64609 6.83059
rclavicle -3.57812e-014 -5.24792e-014
rhumerus 23.57 30.7102 -9.58475
rradius 64.7672
rwrist -26.4404
rhand -17.0375 12.7816
rfingers 7.12502
rthumb 9.19918 -16.9977
lclavicle -3.57812e-014 -5.24792e-014
lhumerus 26.5537 -10.0746 8.15769
lradius 83.5798
lwrist 28.4361
lhand -31.2048 23.2976
lfingers 7.12502
lthumb -4.48095 53.2302
rfemur -41.8601 -10.3911 -11.5211
rtibia 35.7306
rfoot -41.6434 -26.0397
rtoes 26.9036
lfemur -8.56585 11.305 -4.54388
ltibia 21.3079
lfoot 20.5298 22.326
ltoes 8.45685
481
root -21.2723 19.5835 -8.3747 -280.841 -67.9311 278.105
lowerback 18.4125 -0.333484 2.82199
upperback 6.52568 -0.223711 3.58974
thorax -3.28437 -0.318494 2.26258
lowerneck -3.9508 -6.39479 -6.38342
upperneck 5.60977 -10.1763 20.499
head 3.74043 -4.73104 6.84778
rclavicle -7.95139e-015 -3.18055e-014
rhumerus 25.1173 29.2968 -6.18444
rradius 63.1967
rwrist -26.392
rhand -16.9592 12.8251
rfingers 7.12502
rthumb 9.27468 -16.9509
lclavicle -7.95139e-015 -3.18055e-014
lhumerus 26.5141 -8.74623 5.29432
lradius 81.6606
lwrist 28.1081
lhand -31.2128 23.0816
lfingers 7.12502
lthumb -4.48863 53.014
rfemur -43.0794 -11.5106 -11.7607
rtibia 37.358
rfoot -41.3177 -26.1484
rtoes 27.445
lfemur -11.3295 14.3054 -4.59804
ltibia 25.622
lfoot 21.9787 21.4978
ltoes 10.7116
482
root -21.3803 19.7828 -8.47305 -281.735 -67.1 279.014
lowerback 19.365 -0.42554 4.32985
upperback 6.68044 -0.0552918 3.84221
thorax -3.60508 -0.248417 1.65782
lowerneck -3.61368 -6.55237 -6.47785
upperneck 4.97391 -10.2656 20.5093
head 3.51353 -4.82294 6.87252
rclavicle -7.95139e-015 -4.45278e-014
rhumerus 26.4231 27.7245 -3.16459
rradius 61.4827
rwrist -26.2093
rhand -16.8589 12.8737
rfingers 7.12502
rthumb 9.3715 -16.898
lclavicle -7.95139e-015 -4.45278e-014
lhumerus 26.1578 -7.67007 2.57552
lradius 79.4085
lwrist 27.7648
lhand -31.2565 22.8018
lfingers 7.12502
lthumb -4.53083 52.7333
rfemur -44.6744 -13.0318 -11.4526
rtibia 40.0472
rfoot -40.5191 -26.0126
rtoes 27.7099
lfemur -14.4249 17.533 -4.82684
ltibia 31.0014
lfoot 23.8078 19.2897
ltoes 10.9965
483
root -21.4853 19.9625 -8.58316 -282.638 -66.3668 279.727
lowerback 20.5291 -0.492224 5.63792
upperback 6.87655 0.145716 4.08043
thorax -3.97596 -0.171161 1.14616
lowerneck -3.2867 -6.72594 -6.62715
upperneck 4.28879 -10.3653 20.5159
head 3.27911 -4.92208 6.90605
rclavicle 1.59028e-014 3.49861e-014
rhumerus 27.4929 25.9529 -0.524406
rradius 59.7074
rwrist -25.8965
rhand -16.7332 12.9286
rfingers 7.12502
rthumb 9.49276 -16.8376
lclavicle 1.59028e-014 3.49861e-014
lhumerus 25.5382 -6.85575 0.0597828
lradius 76.8538
lwrist 27.3676
lhand -31.363 22.4429
lfingers 7.12502
lthumb -4.63368 52.3722
rfemur -46.5721 -14.8123 -10.7577
rtibia 43.6587
rfoot -39.47 -25.6499
rtoes 27.8271
lfemur -17.6325 20.7528 -5.26885
ltibia 37.1211
lfoot 25.6529 16.4053
ltoes 10.1495
484
root -21.5907 20.1221 -8.70581 -283.612 -65.7881 280.296
lowerback 21.8796 -0.528759 6.665
upperback 7.12051 0.366882 4.29513
thorax -4.37685 -0.0921857 0.76302
lowerneck -2.97028 -6.90796 -6.83518
upperneck 3.5758 -10.4717 20.5297
head 3.044 -5.02527 6.95292
rclavicle -3.18055e-015 -9.54166e-015
rhumerus 28.3332 23.9627 1.69457
rradius 57.9445
rwrist -25.4693
rhand -16.5825 12.984
rfingers 7.12502
rthumb 9.63822 -16.7755
lclavicle -3.18055e-015 -9.54166e-015
lhumerus 24.6749 -6.31561 -2.18792
lradius 74.0771
lwrist 26.8863
lhand -31.5641 22.047
lfingers 7.12502
lthumb -4.82787 51.972
rfemur -48.6905 -16.738 -9.82229
rtibia 48.032
rfoot -38.2906 -25.1635
rtoes 27.8156
lfemur -20.7862 23.8556 -5.9409
ltibia 43.7101
lfoot 27.1824 13.421
ltoes 8.31556
485
root -21.6991 20.263 -8.84011 -284.679 -65.3783 280.765
lowerback 23.3571 -0.531595 7.39945
upperback 7.41625 0.597239 4.47631
thorax -4.77352 -0.0145726 0.5035
lowerneck -2.70747 -7.0947 -7.08697
upperneck 2.88056 -10.5903 20.5626
head 2.82983 -5.13036 7.01189
rclavicle -3.02153e-014 -6.36111e-014
rhumerus 28.9357 21.7263 3.42592
rradius 56.2655
rwrist -24.9771
rhand -16.4155 13.0476
rfingers 7.12502
rthumb 9.79931 -16.7044
lclavicle -3.02153e-014 -6.36111e-014
lhumerus 23.6252 -6.01391 -4.10323
lradius 71.1885
lwrist 26.3055
lhand -31.7876 21.6871
lfingers 7.12502
lthumb -5.04365 51.607
rfemur -50.9491 -18.7296 -8.7427
rtibia 52.9988
rfoot -37.1012 -24.5935
rtoes 27.7784
lfemur -23.8024 26.807 -6.82422
ltibia 50.5426
lfoot 28.1992 10.8709
ltoes 7.40624
